<mxfile host="app.diagrams.net" modified="2024-04-11T09:31:37.378Z" agent="Mozilla/5.0 (X11; Linux x86_64; rv:121.0) Gecko/20100101 Firefox/121.0" etag="WRRfk8Wd9RwOw3W0DRGO" version="24.2.3" type="device">
  <diagram name="Page-1" id="mjZK1fvzyKBitb5LzHdZ">
    <mxGraphModel dx="1154" dy="517" grid="0" gridSize="10" guides="1" tooltips="1" connect="1" arrows="1" fold="1" page="1" pageScale="1" pageWidth="850" pageHeight="1100" math="0" shadow="0">
      <root>
        <mxCell id="0" />
        <mxCell id="1" parent="0" />
        <mxCell id="0vvJPa2mzWQp3PvdwFzy-1" value="" style="curved=1;endArrow=classic;html=1;rounded=0;" edge="1" parent="1">
          <mxGeometry width="50" height="50" relative="1" as="geometry">
            <mxPoint x="200" y="250" as="sourcePoint" />
            <mxPoint x="190" y="310" as="targetPoint" />
            <Array as="points">
              <mxPoint x="210" y="250" />
              <mxPoint x="180" y="270" />
              <mxPoint x="210" y="280" />
              <mxPoint x="190" y="290" />
              <mxPoint x="180" y="280" />
            </Array>
          </mxGeometry>
        </mxCell>
        <mxCell id="0vvJPa2mzWQp3PvdwFzy-2" value="" style="curved=1;endArrow=classic;html=1;rounded=0;" edge="1" parent="1">
          <mxGeometry width="50" height="50" relative="1" as="geometry">
            <mxPoint x="260" y="250" as="sourcePoint" />
            <mxPoint x="250" y="310" as="targetPoint" />
            <Array as="points">
              <mxPoint x="270" y="250" />
              <mxPoint x="240" y="270" />
              <mxPoint x="270" y="280" />
              <mxPoint x="250" y="290" />
              <mxPoint x="240" y="280" />
            </Array>
          </mxGeometry>
        </mxCell>
        <mxCell id="0vvJPa2mzWQp3PvdwFzy-3" value="0" style="text;html=1;align=center;verticalAlign=middle;whiteSpace=wrap;rounded=0;" vertex="1" parent="1">
          <mxGeometry x="190" y="210" width="20" height="30" as="geometry" />
        </mxCell>
        <mxCell id="0vvJPa2mzWQp3PvdwFzy-4" value="1" style="text;html=1;align=center;verticalAlign=middle;whiteSpace=wrap;rounded=0;" vertex="1" parent="1">
          <mxGeometry x="250" y="210" width="20" height="30" as="geometry" />
        </mxCell>
        <mxCell id="0vvJPa2mzWQp3PvdwFzy-5" value="..." style="text;html=1;align=center;verticalAlign=middle;whiteSpace=wrap;rounded=0;" vertex="1" parent="1">
          <mxGeometry x="260" y="250" width="60" height="30" as="geometry" />
        </mxCell>
        <mxCell id="0vvJPa2mzWQp3PvdwFzy-6" value="" style="curved=1;endArrow=classic;html=1;rounded=0;" edge="1" parent="1">
          <mxGeometry width="50" height="50" relative="1" as="geometry">
            <mxPoint x="340" y="250" as="sourcePoint" />
            <mxPoint x="330" y="310" as="targetPoint" />
            <Array as="points">
              <mxPoint x="350" y="250" />
              <mxPoint x="320" y="270" />
              <mxPoint x="350" y="280" />
              <mxPoint x="330" y="290" />
              <mxPoint x="320" y="280" />
            </Array>
          </mxGeometry>
        </mxCell>
        <mxCell id="0vvJPa2mzWQp3PvdwFzy-7" value="32" style="text;whiteSpace=wrap;html=1;" vertex="1" parent="1">
          <mxGeometry x="330" y="210" width="20" height="20" as="geometry" />
        </mxCell>
        <mxCell id="0vvJPa2mzWQp3PvdwFzy-8" value="" style="endArrow=classic;html=1;rounded=0;" edge="1" parent="1">
          <mxGeometry width="50" height="50" relative="1" as="geometry">
            <mxPoint x="140" y="320" as="sourcePoint" />
            <mxPoint x="140" y="520" as="targetPoint" />
          </mxGeometry>
        </mxCell>
        <mxCell id="0vvJPa2mzWQp3PvdwFzy-9" value="Time" style="text;html=1;align=center;verticalAlign=middle;whiteSpace=wrap;rounded=0;" vertex="1" parent="1">
          <mxGeometry x="70" y="400" width="60" height="30" as="geometry" />
        </mxCell>
        <mxCell id="0vvJPa2mzWQp3PvdwFzy-10" value="S0" style="ellipse;whiteSpace=wrap;html=1;aspect=fixed;fillColor=#FFBD24;" vertex="1" parent="1">
          <mxGeometry x="170" y="330" width="40" height="40" as="geometry" />
        </mxCell>
        <mxCell id="0vvJPa2mzWQp3PvdwFzy-11" value="&lt;div&gt;N&lt;/div&gt;&lt;div&gt;O&lt;/div&gt;&lt;div&gt;P&lt;br&gt;&lt;/div&gt;" style="rounded=0;whiteSpace=wrap;html=1;" vertex="1" parent="1">
          <mxGeometry x="255" y="325" width="10" height="50" as="geometry" />
        </mxCell>
        <mxCell id="0vvJPa2mzWQp3PvdwFzy-12" value="&lt;div&gt;N&lt;/div&gt;&lt;div&gt;O&lt;/div&gt;&lt;div&gt;P&lt;br&gt;&lt;/div&gt;" style="rounded=0;whiteSpace=wrap;html=1;" vertex="1" parent="1">
          <mxGeometry x="330" y="325" width="10" height="50" as="geometry" />
        </mxCell>
        <mxCell id="0vvJPa2mzWQp3PvdwFzy-13" value="S1" style="ellipse;whiteSpace=wrap;html=1;aspect=fixed;fillColor=#BCFF1F;" vertex="1" parent="1">
          <mxGeometry x="240" y="400" width="40" height="40" as="geometry" />
        </mxCell>
        <mxCell id="0vvJPa2mzWQp3PvdwFzy-14" value="&lt;div&gt;N&lt;/div&gt;&lt;div&gt;O&lt;/div&gt;&lt;div&gt;P&lt;br&gt;&lt;/div&gt;" style="rounded=0;whiteSpace=wrap;html=1;" vertex="1" parent="1">
          <mxGeometry x="185" y="390" width="10" height="50" as="geometry" />
        </mxCell>
        <mxCell id="0vvJPa2mzWQp3PvdwFzy-15" value="&lt;div&gt;N&lt;/div&gt;&lt;div&gt;O&lt;/div&gt;&lt;div&gt;P&lt;br&gt;&lt;/div&gt;" style="rounded=0;whiteSpace=wrap;html=1;" vertex="1" parent="1">
          <mxGeometry x="330" y="390" width="10" height="50" as="geometry" />
        </mxCell>
        <mxCell id="0vvJPa2mzWQp3PvdwFzy-16" value="S3" style="ellipse;whiteSpace=wrap;html=1;aspect=fixed;fillColor=#14FFC8;" vertex="1" parent="1">
          <mxGeometry x="170" y="470" width="40" height="40" as="geometry" />
        </mxCell>
        <mxCell id="0vvJPa2mzWQp3PvdwFzy-17" value="&lt;div&gt;N&lt;/div&gt;&lt;div&gt;O&lt;/div&gt;&lt;div&gt;P&lt;br&gt;&lt;/div&gt;" style="rounded=0;whiteSpace=wrap;html=1;" vertex="1" parent="1">
          <mxGeometry x="255" y="460" width="10" height="50" as="geometry" />
        </mxCell>
        <mxCell id="0vvJPa2mzWQp3PvdwFzy-18" value="&lt;div&gt;N&lt;/div&gt;&lt;div&gt;O&lt;/div&gt;&lt;div&gt;P&lt;br&gt;&lt;/div&gt;" style="rounded=0;whiteSpace=wrap;html=1;" vertex="1" parent="1">
          <mxGeometry x="330" y="460" width="10" height="50" as="geometry" />
        </mxCell>
        <mxCell id="0vvJPa2mzWQp3PvdwFzy-19" value="WARP-0" style="rounded=1;whiteSpace=wrap;html=1;" vertex="1" parent="1">
          <mxGeometry x="115" y="164" width="70" height="30" as="geometry" />
        </mxCell>
      </root>
    </mxGraphModel>
  </diagram>
</mxfile>
